<svg width="25" height="24" viewBox="0 0 25 24" fill="none" xmlns="http://www.w3.org/2000/svg">
<path d="M21.3006 11.4175V21.6075C21.3006 21.8381 21.255 22.0665 21.1664 22.2795C21.0779 22.4925 20.9481 22.6858 20.7845 22.8485C20.621 23.0111 20.4269 23.1398 20.2134 23.2272C19.9999 23.3145 19.7713 23.3588 19.5406 23.3575H5.67065C5.20653 23.3575 4.76136 23.1731 4.43317 22.8449C4.10498 22.5167 3.92065 22.0716 3.92065 21.6075V11.4175M9.45062 23.3575V19.6975C9.45968 19.2926 9.54878 18.8934 9.71277 18.5231C9.87676 18.1528 10.1124 17.8186 10.4061 17.5397C10.6999 17.2608 11.0459 17.0429 11.4243 16.8983C11.8026 16.7538 12.2058 16.6855 12.6107 16.6975C13.0155 16.6855 13.4187 16.7538 13.7971 16.8983C14.1754 17.0429 14.5214 17.2608 14.8151 17.5397C15.1089 17.8186 15.3445 18.1528 15.5085 18.5231C15.6725 18.8934 15.7616 19.2926 15.7706 19.6975V23.3575M2.59063 11.4175H22.5906C22.913 11.4161 23.2268 11.3136 23.4878 11.1244C23.7488 10.9352 23.9439 10.6689 24.0455 10.3629C24.1471 10.057 24.1502 9.72686 24.0542 9.4191C23.9582 9.11134 23.7681 8.84147 23.5106 8.64749L14.0306 1.48749C13.6097 1.17107 13.0973 1 12.5706 1C12.044 1 11.5316 1.17107 11.1107 1.48749L1.6206 8.53748C1.35732 8.74257 1.16427 9.02442 1.06817 9.34402C0.972079 9.66363 0.9777 10.0052 1.08423 10.3215C1.19075 10.6378 1.39297 10.9131 1.66284 11.1095C1.93271 11.3058 2.25692 11.4135 2.59063 11.4175Z" stroke="url(#paint0_linear_2213_421)" stroke-linecap="round" stroke-linejoin="round"/>
<defs>
<linearGradient id="paint0_linear_2213_421" x1="12.562" y1="1" x2="12.562" y2="23.3575" gradientUnits="userSpaceOnUse">
<stop stop-color="#33E4DB"/>
<stop offset="1" stop-color="#00BBD3"/>
</linearGradient>
</defs>
</svg>
