<svg width="27" height="24" viewBox="0 0 27 24" fill="none" xmlns="http://www.w3.org/2000/svg">
<path d="M5.56862 7.90687C4.21607 8.5193 3.06823 9.49865 2.25922 10.7305C1.45021 11.9624 1.01345 13.3958 1 14.8634C0.998491 16.5465 1.57107 18.1811 2.62562 19.5046L1.27626 22.6476C1.26422 22.6944 1.26454 22.7434 1.27716 22.7901C1.28979 22.8367 1.31429 22.8794 1.34837 22.914C1.38245 22.9487 1.42495 22.9742 1.47184 22.9881C1.51873 23.0019 1.56846 23.0038 1.61625 22.9933L5.29243 21.7152C6.49491 22.3267 7.82805 22.6464 9.18105 22.6476C10.9594 22.6487 12.6924 22.095 14.1321 21.0656M26 10.9241C25.9856 13.0797 25.2373 15.168 23.8751 16.854L25.6069 20.8351C25.6249 20.8961 25.6265 20.9607 25.6116 21.0225C25.5967 21.0843 25.5659 21.1412 25.5219 21.1877C25.478 21.2341 25.4226 21.2686 25.3611 21.2876C25.2996 21.3066 25.2342 21.3095 25.1712 21.2961L20.4645 19.6513C18.9275 20.4338 17.2219 20.8399 15.4921 20.8351C12.7717 20.8885 10.1412 19.8744 8.17876 18.0159C6.21631 16.1574 5.08261 13.6066 5.02681 10.9241C5.08263 8.24074 6.21598 5.68888 8.17811 3.82872C10.1402 1.96857 12.7707 0.952157 15.4921 1.00268C16.8414 0.972066 18.1836 1.20393 19.442 1.68497C20.7004 2.16601 21.8505 2.8868 22.8263 3.80621C23.8021 4.72563 24.5846 5.82563 25.1292 7.04335C25.6737 8.26108 25.9697 9.57267 26 10.9032V10.9241Z" stroke="url(#paint0_linear_2213_422)" stroke-linecap="round" stroke-linejoin="round"/>
<defs>
<linearGradient id="paint0_linear_2213_422" x1="13.5" y1="1" x2="13.5" y2="23" gradientUnits="userSpaceOnUse">
<stop stop-color="#33E4DB"/>
<stop offset="1" stop-color="#00BBD3"/>
</linearGradient>
</defs>
</svg>
