<svg width="360" height="800" viewBox="0 0 360 800" fill="none" xmlns="http://www.w3.org/2000/svg">
<rect width="360" height="800" rx="30" fill="url(#paint0_linear_2279_1229)"/>
<path d="M257.903 331.582C256.272 326.254 252.374 321.885 247.906 318.062C244.001 314.883 239.722 312.199 235.164 310.071C223.669 304.383 209.721 301.04 197.576 295.126C193.654 293.368 189.962 291.131 186.585 288.466C184.198 286.468 182.912 284.47 183.243 282.419C179.339 277.801 174.53 274.04 169.116 271.37C163.702 268.7 157.799 267.178 151.774 266.9C145.749 266.621 139.732 267.591 134.097 269.75C128.461 271.909 123.329 275.211 119.019 279.449C116.893 281.561 114.966 283.866 113.264 286.335C105.652 297.686 102.185 311.334 103.453 324.962C103.998 331.72 105.797 338.315 108.756 344.409C112.177 351.282 117.401 356.809 122.93 362.03C129.652 368.371 136.547 374.538 143.481 380.678C153.982 389.922 164.589 399.019 175.301 407.97C177.953 410.172 180.578 412.365 183.177 414.55C218.312 385.247 235.907 369.263 244.048 361.404C249.775 355.903 254.734 350.225 258.115 343.245C259.343 339.486 259.268 335.292 257.903 331.582Z" fill="white"/>
<path d="M192.127 287.028C197.099 288.786 202.323 290.224 207.48 291.543C218.153 294.207 229.079 296.698 239.208 301.639C249.046 306.474 258.95 314.093 263.074 324.576C263.383 320.824 263.347 317.052 262.968 313.307C261.642 300.76 256.55 288.306 247.495 279.396C243.166 275.185 238.032 271.902 232.402 269.745C226.773 267.588 220.766 266.603 214.746 266.848C213.214 266.917 211.686 267.072 210.172 267.315C208.652 267.543 207.147 267.858 205.664 268.26C202.689 269.047 199.805 270.146 197.059 271.537C195.692 272.226 194.364 272.99 193.081 273.828C191.785 274.649 190.532 275.538 189.329 276.492C188.839 276.891 188.348 277.291 187.871 277.704L187.168 278.33C186.238 279.141 185.642 280.271 185.497 281.5C185.477 281.958 185.556 282.416 185.727 282.841C185.899 283.266 186.16 283.649 186.492 283.964C187.332 284.77 188.312 285.415 189.382 285.869C190.277 286.301 191.193 286.687 192.127 287.028Z" fill="white"/>
<path d="M155.016 240.103L155.944 239.796L156.792 239.53C158.118 239.13 159.365 238.757 160.677 238.411C177.755 233.891 195.759 234.335 212.595 239.692C229.432 245.048 244.408 255.097 255.782 268.67C267.156 282.242 274.46 298.78 276.845 316.359C279.229 333.938 276.596 351.836 269.252 367.971C269.183 368.134 269.179 368.318 269.241 368.484C269.303 368.65 269.425 368.785 269.584 368.863C269.744 368.936 269.926 368.941 270.09 368.879C270.254 368.816 270.386 368.691 270.459 368.53C277.893 352.165 280.553 334.015 278.129 316.192C275.704 298.368 268.295 281.601 256.762 267.839C245.229 254.077 230.046 243.885 212.977 238.447C195.907 233.009 177.652 232.549 160.332 237.119C159.007 237.479 157.681 237.852 156.355 238.265L155.493 238.531L154.552 238.851C154.46 238.87 154.374 238.909 154.298 238.965C154.222 239.02 154.159 239.091 154.113 239.173C154.067 239.255 154.038 239.346 154.03 239.439C154.021 239.533 154.032 239.628 154.062 239.717C154.092 239.806 154.141 239.887 154.205 239.956C154.269 240.025 154.346 240.08 154.433 240.116C154.519 240.152 154.612 240.17 154.706 240.168C154.799 240.166 154.891 240.143 154.976 240.103H155.016Z" fill="white"/>
<path d="M237.776 405.812C219.388 418.634 197.021 424.382 174.763 422.004C152.504 419.626 131.841 409.282 116.548 392.862C101.255 376.442 92.3536 355.042 91.4708 332.572C90.588 310.103 97.7825 288.065 111.74 270.485C112.787 269.153 113.888 267.821 115.015 266.595C115.132 266.463 115.193 266.289 115.183 266.112C115.173 265.934 115.093 265.768 114.961 265.65C114.83 265.531 114.656 265.47 114.48 265.48C114.303 265.49 114.138 265.57 114.02 265.703C112.88 267.035 111.779 268.367 110.705 269.699C96.5127 287.529 89.1877 309.899 90.0716 332.712C90.9554 355.525 99.989 377.254 115.518 393.923C131.048 410.591 152.034 421.083 174.634 423.476C197.234 425.87 219.937 420.006 238.585 406.958C238.656 406.908 238.717 406.845 238.764 406.772C238.81 406.699 238.842 406.617 238.857 406.532C238.872 406.446 238.869 406.358 238.85 406.274C238.831 406.189 238.795 406.109 238.744 406.038C238.699 405.955 238.638 405.883 238.563 405.825C238.488 405.768 238.402 405.727 238.311 405.706C238.219 405.685 238.124 405.683 238.032 405.701C237.94 405.72 237.853 405.757 237.776 405.812Z" fill="white"/>
<path d="M192.074 345.328C189.236 338.734 182.527 336.11 177.224 331.728C174.623 329.725 172.668 326.997 171.602 323.883H151.516C151.058 323.883 150.62 324.065 150.297 324.39C149.973 324.715 149.792 325.155 149.792 325.615V337.522C149.792 339.642 150.63 341.675 152.122 343.173C153.614 344.672 155.637 345.514 157.747 345.514H172.57C172.634 345.514 172.694 345.539 172.739 345.584C172.784 345.629 172.809 345.69 172.809 345.754V358.088C172.812 360.876 173.917 363.549 175.881 365.52C177.845 367.49 180.508 368.597 183.283 368.597H192.498C192.976 368.597 193.435 368.406 193.773 368.066C194.111 367.727 194.301 367.266 194.301 366.786V354.372C194.307 353.511 194.241 352.651 194.102 351.801C193.737 349.557 193.054 347.377 192.074 345.328Z" fill="url(#paint1_linear_2279_1229)"/>
<path d="M209.323 323.883H194.487C194.423 323.883 194.363 323.858 194.318 323.813C194.273 323.768 194.248 323.707 194.248 323.643V308.752C194.248 306.632 193.41 304.6 191.918 303.101C190.426 301.602 188.403 300.76 186.293 300.76H175.023C174.717 300.762 174.414 300.825 174.132 300.945C173.85 301.066 173.595 301.242 173.381 301.462C173.168 301.683 173 301.944 172.888 302.231C172.776 302.517 172.722 302.823 172.729 303.131V317.29C172.701 319.08 173.111 320.85 173.923 322.445C178.576 331.209 190.469 332.234 194.58 344.342C194.712 344.728 194.805 345.115 194.898 345.501H216.112C216.388 345.497 216.653 345.385 216.848 345.189C217.044 344.992 217.156 344.727 217.159 344.449V331.862C217.156 329.765 216.332 327.753 214.867 326.261C213.401 324.769 211.41 323.914 209.323 323.883Z" fill="url(#paint2_linear_2279_1229)"/>
<path d="M132.755 255.46C135.588 255.46 137.886 253.152 137.886 250.305C137.886 247.459 135.588 245.151 132.755 245.151C129.921 245.151 127.623 247.459 127.623 250.305C127.623 253.152 129.921 255.46 132.755 255.46Z" fill="white"/>
<path d="M148.386 245.351C150.261 245.351 151.781 243.824 151.781 241.941C151.781 240.058 150.261 238.531 148.386 238.531C146.512 238.531 144.992 240.058 144.992 241.941C144.992 243.824 146.512 245.351 148.386 245.351Z" fill="white"/>
<path d="M119.125 264.664C120.999 264.664 122.519 263.137 122.519 261.254C122.519 259.371 120.999 257.844 119.125 257.844C117.25 257.844 115.73 259.371 115.73 261.254C115.73 263.137 117.25 264.664 119.125 264.664Z" fill="white"/>
<path d="M261.562 387.897C261.248 386.828 260.597 385.89 259.708 385.223C258.819 384.555 257.74 384.195 256.63 384.194C256.146 384.195 255.664 384.262 255.198 384.394C254.007 384.737 252.98 385.501 252.307 386.545C251.633 387.59 251.358 388.843 251.533 390.075C251.707 391.307 252.319 392.434 253.256 393.248C254.193 394.062 255.391 394.508 256.63 394.504C257.119 394.504 257.606 394.432 258.075 394.291C258.723 394.102 259.327 393.787 259.854 393.364C260.38 392.94 260.818 392.416 261.142 391.822C261.466 391.228 261.67 390.575 261.742 389.902C261.814 389.228 261.753 388.547 261.562 387.897Z" fill="white"/>
<path d="M247.23 400.817C247.041 400.174 246.667 399.6 246.155 399.17C245.642 398.74 245.014 398.471 244.35 398.399C243.686 398.327 243.016 398.454 242.424 398.764C241.831 399.074 241.344 399.553 241.022 400.142C240.701 400.73 240.56 401.4 240.618 402.069C240.675 402.737 240.929 403.374 241.346 403.898C241.763 404.422 242.326 404.81 242.962 405.013C243.599 405.216 244.281 405.225 244.923 405.04C245.351 404.916 245.75 404.708 246.098 404.428C246.446 404.149 246.736 403.803 246.95 403.41C247.164 403.018 247.299 402.587 247.347 402.142C247.395 401.697 247.355 401.247 247.23 400.817Z" fill="white"/>
<path d="M269.928 374.031C269.744 373.375 269.37 372.788 268.852 372.346C268.335 371.904 267.699 371.626 267.024 371.549C266.349 371.471 265.667 371.597 265.064 371.911C264.46 372.225 263.964 372.711 263.637 373.31C263.31 373.908 263.168 374.59 263.229 375.269C263.289 375.949 263.55 376.595 263.977 377.125C264.404 377.656 264.979 378.046 265.628 378.247C266.277 378.448 266.971 378.45 267.621 378.254C268.049 378.13 268.449 377.922 268.797 377.642C269.145 377.363 269.434 377.017 269.649 376.624C269.863 376.232 269.998 375.801 270.046 375.356C270.094 374.911 270.054 374.461 269.928 374.031Z" fill="white"/>
<path d="M96.5 482V458.727H102.818V467.818H111.182V458.727H117.5V482H111.182V472.909H102.818V482H96.5ZM127.675 482.318C125.811 482.318 124.205 481.962 122.856 481.25C121.515 480.53 120.481 479.5 119.754 478.159C119.034 476.811 118.675 475.197 118.675 473.318C118.675 471.515 119.038 469.939 119.765 468.591C120.493 467.242 121.519 466.193 122.845 465.443C124.171 464.693 125.735 464.318 127.538 464.318C128.856 464.318 130.05 464.523 131.118 464.932C132.186 465.341 133.099 465.936 133.856 466.716C134.614 467.489 135.197 468.428 135.606 469.534C136.015 470.64 136.22 471.886 136.22 473.273V474.727H120.629V471.273H130.447C130.44 470.773 130.311 470.333 130.061 469.955C129.818 469.568 129.489 469.269 129.072 469.057C128.663 468.837 128.197 468.727 127.675 468.727C127.167 468.727 126.701 468.837 126.277 469.057C125.853 469.269 125.512 469.564 125.254 469.943C125.004 470.322 124.872 470.765 124.856 471.273V475C124.856 475.561 124.974 476.061 125.209 476.5C125.443 476.939 125.781 477.284 126.22 477.534C126.659 477.784 127.19 477.909 127.811 477.909C128.243 477.909 128.637 477.848 128.993 477.727C129.356 477.606 129.667 477.432 129.925 477.205C130.182 476.97 130.372 476.689 130.493 476.364H136.22C136.023 477.576 135.557 478.629 134.822 479.523C134.087 480.409 133.114 481.098 131.902 481.591C130.697 482.076 129.288 482.318 127.675 482.318ZM142.363 482.273C141.25 482.273 140.265 482.091 139.409 481.727C138.56 481.356 137.894 480.795 137.409 480.045C136.924 479.295 136.681 478.341 136.681 477.182C136.681 476.227 136.844 475.413 137.17 474.739C137.496 474.057 137.95 473.5 138.534 473.068C139.117 472.636 139.795 472.307 140.568 472.08C141.348 471.852 142.189 471.705 143.091 471.636C144.068 471.561 144.852 471.47 145.443 471.364C146.041 471.25 146.473 471.095 146.738 470.898C147.003 470.693 147.136 470.424 147.136 470.091V470.045C147.136 469.591 146.962 469.242 146.613 469C146.265 468.758 145.818 468.636 145.272 468.636C144.674 468.636 144.185 468.769 143.806 469.034C143.435 469.292 143.212 469.689 143.136 470.227H137.363C137.439 469.167 137.776 468.189 138.375 467.295C138.981 466.394 139.863 465.674 141.022 465.136C142.181 464.591 143.628 464.318 145.363 464.318C146.613 464.318 147.735 464.466 148.727 464.761C149.719 465.049 150.564 465.455 151.261 465.977C151.958 466.492 152.488 467.098 152.852 467.795C153.223 468.485 153.409 469.235 153.409 470.045V482H147.545V479.545H147.409C147.06 480.197 146.636 480.723 146.136 481.125C145.644 481.527 145.079 481.818 144.443 482C143.814 482.182 143.121 482.273 142.363 482.273ZM144.409 478.318C144.886 478.318 145.333 478.22 145.75 478.023C146.174 477.826 146.519 477.542 146.784 477.17C147.049 476.799 147.181 476.348 147.181 475.818V474.364C147.015 474.432 146.837 474.496 146.647 474.557C146.466 474.617 146.269 474.674 146.056 474.727C145.852 474.78 145.632 474.83 145.397 474.875C145.17 474.92 144.931 474.962 144.681 475C144.197 475.076 143.799 475.201 143.488 475.375C143.185 475.542 142.958 475.75 142.806 476C142.663 476.242 142.591 476.515 142.591 476.818C142.591 477.303 142.761 477.674 143.102 477.932C143.443 478.189 143.878 478.318 144.409 478.318ZM161.399 458.727V482H155.126V458.727H161.399ZM173.724 464.545V469.091H162.224V464.545H173.724ZM164.451 460.364H170.724V476.386C170.724 476.629 170.765 476.833 170.849 477C170.932 477.159 171.061 477.28 171.235 477.364C171.409 477.439 171.633 477.477 171.906 477.477C172.095 477.477 172.315 477.455 172.565 477.409C172.822 477.364 173.012 477.326 173.133 477.295L174.042 481.705C173.762 481.788 173.36 481.89 172.837 482.011C172.322 482.133 171.709 482.212 170.996 482.25C169.557 482.326 168.349 482.178 167.371 481.807C166.394 481.428 165.659 480.833 165.167 480.023C164.675 479.212 164.436 478.197 164.451 476.977V460.364ZM181.651 472.182V482H175.378V458.727H181.424V467.864H181.606C182 466.75 182.655 465.883 183.572 465.261C184.488 464.633 185.591 464.318 186.878 464.318C188.113 464.318 189.185 464.598 190.094 465.159C191.011 465.72 191.719 466.492 192.219 467.477C192.727 468.462 192.977 469.591 192.969 470.864V482H186.697V472.182C186.704 471.318 186.488 470.64 186.049 470.148C185.617 469.655 185 469.409 184.197 469.409C183.689 469.409 183.242 469.523 182.856 469.75C182.477 469.97 182.181 470.288 181.969 470.705C181.765 471.114 181.659 471.606 181.651 472.182ZM194.468 462.261V458.727H213.036V462.261H205.843V482H201.661V462.261H194.468ZM213.341 482V464.545H217.33V467.455H217.512C217.83 466.447 218.375 465.67 219.148 465.125C219.928 464.572 220.818 464.295 221.818 464.295C222.046 464.295 222.299 464.307 222.58 464.33C222.868 464.345 223.106 464.371 223.296 464.409V468.193C223.121 468.133 222.845 468.08 222.466 468.034C222.095 467.981 221.735 467.955 221.387 467.955C220.637 467.955 219.962 468.117 219.364 468.443C218.773 468.761 218.307 469.205 217.966 469.773C217.625 470.341 217.455 470.996 217.455 471.739V482H213.341ZM229.459 482.352C228.353 482.352 227.357 482.155 226.47 481.761C225.591 481.36 224.894 480.769 224.379 479.989C223.872 479.208 223.618 478.246 223.618 477.102C223.618 476.117 223.8 475.303 224.163 474.659C224.527 474.015 225.023 473.5 225.652 473.114C226.281 472.727 226.989 472.436 227.777 472.239C228.573 472.034 229.394 471.886 230.243 471.795C231.266 471.689 232.095 471.595 232.732 471.511C233.368 471.42 233.83 471.284 234.118 471.102C234.413 470.913 234.561 470.621 234.561 470.227V470.159C234.561 469.303 234.307 468.64 233.8 468.17C233.292 467.701 232.561 467.466 231.607 467.466C230.599 467.466 229.8 467.686 229.209 468.125C228.626 468.564 228.232 469.083 228.027 469.682L224.186 469.136C224.489 468.076 224.989 467.189 225.686 466.477C226.383 465.758 227.235 465.22 228.243 464.864C229.251 464.5 230.364 464.318 231.584 464.318C232.425 464.318 233.262 464.417 234.095 464.614C234.929 464.811 235.69 465.136 236.379 465.591C237.069 466.038 237.622 466.648 238.038 467.42C238.463 468.193 238.675 469.159 238.675 470.318V482H234.72V479.602H234.584C234.334 480.087 233.982 480.542 233.527 480.966C233.08 481.383 232.516 481.72 231.834 481.977C231.16 482.227 230.368 482.352 229.459 482.352ZM230.527 479.33C231.353 479.33 232.069 479.167 232.675 478.841C233.281 478.508 233.747 478.068 234.073 477.523C234.406 476.977 234.573 476.383 234.573 475.739V473.682C234.444 473.788 234.224 473.886 233.913 473.977C233.61 474.068 233.269 474.148 232.891 474.216C232.512 474.284 232.137 474.345 231.766 474.398C231.394 474.451 231.073 474.496 230.8 474.534C230.186 474.617 229.637 474.754 229.152 474.943C228.667 475.133 228.285 475.398 228.004 475.739C227.724 476.072 227.584 476.504 227.584 477.034C227.584 477.792 227.86 478.364 228.413 478.75C228.966 479.136 229.671 479.33 230.527 479.33ZM249.145 482.341C247.402 482.341 245.906 481.958 244.656 481.193C243.414 480.428 242.455 479.371 241.781 478.023C241.114 476.667 240.781 475.106 240.781 473.341C240.781 471.568 241.122 470.004 241.804 468.648C242.486 467.284 243.448 466.223 244.69 465.466C245.94 464.701 247.417 464.318 249.122 464.318C250.539 464.318 251.792 464.58 252.883 465.102C253.982 465.617 254.857 466.348 255.508 467.295C256.16 468.235 256.531 469.333 256.622 470.591H252.69C252.531 469.75 252.152 469.049 251.554 468.489C250.963 467.92 250.171 467.636 249.179 467.636C248.338 467.636 247.599 467.864 246.963 468.318C246.327 468.765 245.83 469.409 245.474 470.25C245.126 471.091 244.952 472.098 244.952 473.273C244.952 474.462 245.126 475.485 245.474 476.341C245.823 477.189 246.311 477.845 246.94 478.307C247.577 478.761 248.323 478.989 249.179 478.989C249.785 478.989 250.327 478.875 250.804 478.648C251.289 478.413 251.694 478.076 252.02 477.636C252.346 477.197 252.569 476.663 252.69 476.034H256.622C256.524 477.269 256.16 478.364 255.531 479.318C254.902 480.265 254.046 481.008 252.963 481.545C251.88 482.076 250.607 482.341 249.145 482.341ZM262.47 476.523L262.459 471.557H263.118L269.39 464.545H274.197L266.481 473.136H265.629L262.47 476.523ZM258.72 482V458.727H262.834V482H258.72ZM269.674 482L263.993 474.057L266.765 471.159L274.595 482H269.674Z" fill="white"/>
<defs>
<linearGradient id="paint0_linear_2279_1229" x1="180" y1="0" x2="180" y2="800" gradientUnits="userSpaceOnUse">
<stop stop-color="#33E4DB"/>
<stop offset="1" stop-color="#00BBD3"/>
</linearGradient>
<linearGradient id="paint1_linear_2279_1229" x1="184.5" y1="234" x2="184.5" y2="424" gradientUnits="userSpaceOnUse">
<stop stop-color="#33E4DB"/>
<stop offset="1" stop-color="#00BBD3"/>
</linearGradient>
<linearGradient id="paint2_linear_2279_1229" x1="184.5" y1="234" x2="184.5" y2="424" gradientUnits="userSpaceOnUse">
<stop stop-color="#33E4DB"/>
<stop offset="1" stop-color="#00BBD3"/>
</linearGradient>
</defs>
</svg>
