<svg width="22" height="24" viewBox="0 0 22 24" fill="none" xmlns="http://www.w3.org/2000/svg">
<path d="M16.3759 8.6306C16.5878 7.90163 16.6498 7.13748 16.558 6.38407C16.3979 4.83868 15.6425 3.41542 14.4508 2.41373C13.2591 1.41203 11.724 0.910007 10.1685 1.01328C9.40934 1.07417 8.67036 1.28731 7.99594 1.63989C7.32153 1.99248 6.72558 2.47722 6.24385 3.06505C5.76212 3.65288 5.40456 4.33167 5.19263 5.06064C4.9807 5.78962 4.91875 6.55376 5.01055 7.30718C5.16809 8.85361 5.92276 10.2785 7.11504 11.2807C8.30733 12.2829 9.84387 12.7839 11.4 12.678C12.1592 12.6171 12.8981 12.4039 13.5726 12.0514C14.247 11.6988 14.8429 11.214 15.3247 10.6262C15.8064 10.0384 16.1639 9.35958 16.3759 8.6306Z" stroke="url(#paint0_linear_2213_423)" stroke-linecap="round"/>
<path d="M14.1474 15.206C20.4316 15.206 21 18.5418 21 21.888C20.9986 22.0354 20.9681 22.1811 20.9102 22.3168C20.8524 22.4524 20.7683 22.5754 20.6627 22.6786C20.5571 22.7819 20.4322 22.8634 20.295 22.9185C20.1578 22.9737 20.0111 23.0013 19.8631 22.9999H2.1474C1.84768 23.0028 1.55892 22.8875 1.34405 22.6793C1.12917 22.471 1.00554 22.1867 1 21.888C1 16.5907 3.29474 15.206 7.57895 15.206H14.1474Z" stroke="url(#paint1_linear_2213_423)" stroke-linecap="round"/>
<defs>
<linearGradient id="paint0_linear_2213_423" x1="11" y1="1" x2="11" y2="23" gradientUnits="userSpaceOnUse">
<stop stop-color="#33E4DB"/>
<stop offset="1" stop-color="#00BBD3"/>
</linearGradient>
<linearGradient id="paint1_linear_2213_423" x1="11" y1="1" x2="11" y2="23" gradientUnits="userSpaceOnUse">
<stop stop-color="#33E4DB"/>
<stop offset="1" stop-color="#00BBD3"/>
</linearGradient>
</defs>
</svg>
